<?xml version="1.0" ?><svg style="enable-background:new 0 0 48 48;" version="1.1" viewBox="0 0 48 48" xml:space="preserve" xmlns="http://www.w3.org/2000/svg" xmlns:xlink="http://www.w3.org/1999/xlink"><g id="Icons"><g id="Icons_23_"><g><path d="M23.99505,8.655c-8.4701,0-15.3401,6.87-15.3401,15.3399c0,8.4801,6.87,15.3501,15.3401,15.3501     c8.48,0,15.35-6.87,15.35-15.3501C39.34505,15.525,32.47505,8.655,23.99505,8.655z M19.64495,31.6849     c0,0.18-0.0499,0.23-0.2299,0.23h-2.87c-0.18,0-0.24-0.05-0.23-0.23V21.535c-0.01-0.1801,0.06-0.2401,0.23-0.2301h2.87     c0.19-0.01,0.2299,0.05,0.2299,0.2301V31.6849z M17.98505,19.9349c-1.06,0.01-1.93-0.87-1.93-1.93c0-1,0.7799-1.9199,1.92-1.9299     c1.08,0,1.94,0.81,1.94,1.9299C19.91505,19.1049,19.07505,19.9249,17.98505,19.9349z M31.64495,31.9149h-2.81     c-0.2299,0-0.2399-0.0099-0.2399-0.25V26.535c0-0.4901-0.0101-0.9701-0.15-1.44c-0.22-0.7301-0.7-1.08-1.46-1.1001     c-0.54-0.01-1.05,0.0901-1.44,0.51c-0.3,0.3301-0.44,0.74-0.49,1.17c-0.04,0.39-0.07,0.7901-0.07,1.19     c-0.01,1.6101-0.01,3.2201,0,4.83c0,0.17-0.05,0.22-0.22,0.22h-2.89c-0.17,0-0.23-0.05-0.23-0.22c0.01-3.39,0.01-6.78,0-10.1699     c0-0.18,0.06-0.2201,0.23-0.2201h2.76c0.18,0,0.23,0.06,0.23,0.2301c-0.01,0.37,0,0.75,0,1.12c0.52-0.76,1.22-1.26,2.1-1.4701     c1.02-0.25,2.03-0.1799,2.99,0.24c0.93,0.4001,1.43,1.1601,1.69,2.1001c0.18,0.61,0.26,1.24,0.27,1.88     c0.01,2.07,0.02,4.1499,0.03,6.2199C31.94505,31.9149,31.94505,31.9149,31.64495,31.9149z" style="fill:#0097D3;"/></g></g></g></svg>